<ttFont>
<TTGlyph name="A" xMin="-112" yMin="0" xMax="1864" yMax="2160">
  <contour>
    <pt x="-112" y="0" on="1"/>
    <pt x="937" y="1333" on="0"/>
    <pt x="159" y="2160" on="1"/>
    <pt x="1178" y="1382" on="0"/>
    <pt x="1488" y="0" on="1"/>
    <pt x="1306" y="49" on="1"/>
    <pt x="1125" y="0" on="1"/>
    <pt x="1118" y="1912" on="0"/>
    <pt x="604" y="2008" on="0"/>
    <pt x="725" y="1237" on="0"/>
    <pt x="355" y="0" on="1"/>
    <pt x="114" y="57" on="1"/>
  </contour>
  <contour>
    <pt x="1864" y="1096" on="1"/>
    <pt x="1864" y="1096" on="1"/>
  </contour>
  <contour>
    <pt x="-48" y="976" on="1"/>
    <pt x="1057" y="1056" on="0"/>
    <pt x="1371" y="1432" on="1"/>
    <pt x="1355" y="1192" on="0"/>
    <pt x="1544" y="992" on="1"/>
    <pt x="1316" y="1064" on="0"/>
    <pt x="367" y="840" on="0"/>
    <pt x="148" y="656" on="1"/>
    <pt x="210" y="880" on="0"/>
  </contour>
</TTGlyph>
<TTGlyph name="B" xMin="20" yMin="0" xMax="1619" yMax="2176">
  <contour>
    <pt x="27" y="8" on="1"/>
    <pt x="567" y="1719" on="0"/>
    <pt x="20" y="2160" on="1"/>
    <pt x="1619" y="2176" on="0"/>
    <pt x="581" y="1357" on="1"/>
    <pt x="1356" y="1221" on="0"/>
    <pt x="1560" y="546" on="0"/>
    <pt x="1232" y="97" on="0"/>
    <pt x="436" y="8" on="1"/>
  </contour>
  <contour>
    <pt x="420" y="0" on="1"/>
    <pt x="540" y="376" on="1"/>
    <pt x="1228" y="416" on="0"/>
    <pt x="1172" y="1016" on="0"/>
    <pt x="572" y="1352" on="1"/>
    <pt x="1228" y="1320" on="0"/>
    <pt x="1364" y="1640" on="0"/>
    <pt x="1140" y="1824" on="0"/>
    <pt x="460" y="1888" on="1"/>
    <pt x="684" y="1560" on="0"/>
    <pt x="572" y="272" on="0"/>
  </contour>
</TTGlyph>
<TTGlyph name="C" xMin="20" yMin="-16" xMax="1620" yMax="2144">
  <contour>
    <pt x="1583" y="824" on="1"/>
    <pt x="1620" y="8" on="0"/>
    <pt x="897" y="-16" on="1"/>
    <pt x="71" y="48" on="0"/>
    <pt x="20" y="816" on="1"/>
    <pt x="20" y="1032" on="0"/>
    <pt x="20" y="1272" on="1"/>
    <pt x="182" y="1864" on="0"/>
    <pt x="853" y="1872" on="1"/>
    <pt x="1487" y="1848" on="0"/>
    <pt x="1583" y="1416" on="1"/>
    <pt x="1310" y="1416" on="1"/>
    <pt x="1369" y="1992" on="0"/>
    <pt x="860" y="2144" on="1"/>
    <pt x="196" y="2024" on="0"/>
    <pt x="241" y="1288" on="1"/>
    <pt x="248" y="1032" on="0"/>
    <pt x="255" y="816" on="1"/>
    <pt x="314" y="288" on="0"/>
    <pt x="890" y="264" on="1"/>
    <pt x="1354" y="264" on="0"/>
    <pt x="1310" y="824" on="1"/>
  </contour>
</TTGlyph>
<TTGlyph name="D" xMin="20" yMin="-8" xMax="1620" yMax="2152">
  <contour>
    <pt x="20" y="0" on="1"/>
    <pt x="656" y="1616" on="0"/>
    <pt x="20" y="2152" on="1"/>
    <pt x="960" y="1968" on="0"/>
    <pt x="1301" y="1408" on="0"/>
    <pt x="1256" y="464" on="0"/>
    <pt x="1005" y="-8" on="0"/>
    <pt x="277" y="16" on="1"/>
    <pt x="315" y="264" on="1"/>
    <pt x="1316" y="312" on="0"/>
    <pt x="1566" y="744" on="0"/>
    <pt x="1620" y="1192" on="0"/>
    <pt x="1392" y="1480" on="0"/>
    <pt x="929" y="1536" on="0"/>
    <pt x="497" y="1784" on="1"/>
    <pt x="854" y="1240" on="0"/>
    <pt x="315" y="16" on="1"/>
  </contour>
</TTGlyph>
<TTGlyph name="E" xMin="20" yMin="0" xMax="1591" yMax="2148">
  <contour>
    <pt x="20" y="0" on="1"/>
    <pt x="513" y="1491" on="0"/>
    <pt x="27" y="2144" on="1"/>
    <pt x="957" y="1451" on="0"/>
    <pt x="1348" y="2148" on="1"/>
    <pt x="1348" y="1692" on="1"/>
    <pt x="1036" y="2148" on="0"/>
    <pt x="365" y="1969" on="0"/>
    <pt x="492" y="909" on="0"/>
    <pt x="1140" y="1300" on="1"/>
    <pt x="1140" y="877" on="1"/>
    <pt x="358" y="1084" on="0"/>
    <pt x="583" y="72" on="0"/>
    <pt x="1591" y="479" on="1"/>
    <pt x="1591" y="0" on="1"/>
    <pt x="731" y="216" on="0"/>
  </contour>
</TTGlyph>
<TTGlyph name="F" xMin="92" yMin="0" xMax="1420" yMax="2148">
  <contour>
    <pt x="92" y="0" on="1"/>
    <pt x="595" y="1349" on="0"/>
    <pt x="92" y="2148" on="1"/>
    <pt x="951" y="1414" on="0"/>
    <pt x="1420" y="2148" on="1"/>
    <pt x="1420" y="1588" on="1"/>
    <pt x="1132" y="2148" on="0"/>
    <pt x="444" y="2036" on="0"/>
    <pt x="734" y="1036" on="0"/>
    <pt x="1174" y="1366" on="1"/>
    <pt x="1174" y="868" on="1"/>
    <pt x="881" y="1125" on="0"/>
    <pt x="455" y="611" on="0"/>
    <pt x="790" y="0" on="1"/>
    <pt x="560" y="249" on="0"/>
  </contour>
</TTGlyph>
<TTGlyph name="G" xMin="16" yMin="0" xMax="1624" yMax="2148">
  <contour>
    <pt x="1455" y="1472" on="1"/>
    <pt x="1213" y="1280" on="1"/>
    <pt x="1088" y="1436" on="0"/>
    <pt x="1128" y="2036" on="0"/>
    <pt x="752" y="2148" on="0"/>
    <pt x="584" y="2148" on="0"/>
    <pt x="359" y="2112" on="0"/>
    <pt x="103" y="1760" on="0"/>
    <pt x="231" y="488" on="0"/>
    <pt x="1159" y="200" on="0"/>
    <pt x="1213" y="720" on="1"/>
    <pt x="971" y="720" on="1"/>
    <pt x="971" y="1000" on="1"/>
    <pt x="1624" y="1000" on="1"/>
    <pt x="1624" y="720" on="1"/>
    <pt x="1455" y="720" on="1"/>
    <pt x="1381" y="64" on="0"/>
    <pt x="836" y="0" on="0"/>
    <pt x="419" y="88" on="0"/>
    <pt x="49" y="576" on="0"/>
    <pt x="16" y="1392" on="0"/>
    <pt x="224" y="1800" on="0"/>
    <pt x="736" y="1908" on="0"/>
    <pt x="1312" y="1740" on="0"/>
  </contour>
</TTGlyph>
<TTGlyph name="H" xMin="24" yMin="0" xMax="1615" yMax="2160">
  <contour>
    <pt x="24" y="0" on="1"/>
    <pt x="396" y="1016" on="0"/>
    <pt x="24" y="2152" on="1"/>
    <pt x="427" y="1888" on="0"/>
    <pt x="575" y="2152" on="1"/>
    <pt x="427" y="1496" on="0"/>
    <pt x="482" y="856" on="0"/>
    <pt x="1126" y="856" on="0"/>
    <pt x="1235" y="1488" on="0"/>
    <pt x="1111" y="2160" on="1"/>
    <pt x="1227" y="1872" on="0"/>
    <pt x="1615" y="2152" on="1"/>
    <pt x="1243" y="1032" on="0"/>
    <pt x="1615" y="0" on="1"/>
    <pt x="1212" y="224" on="0"/>
    <pt x="1111" y="0" on="1"/>
    <pt x="1289" y="632" on="0"/>
    <pt x="1072" y="1256" on="0"/>
    <pt x="598" y="1272" on="0"/>
    <pt x="319" y="400" on="0"/>
    <pt x="575" y="0" on="1"/>
    <pt x="381" y="224" on="0"/>
  </contour>
</TTGlyph>
<TTGlyph name="I" xMin="96" yMin="0" xMax="800" yMax="2152">
  <contour>
    <pt x="96" y="0" on="1"/>
    <pt x="272" y="232" on="0"/>
    <pt x="752" y="1072" on="0"/>
    <pt x="216" y="1936" on="0"/>
    <pt x="96" y="2152" on="1"/>
    <pt x="464" y="1984" on="0"/>
    <pt x="800" y="2152" on="1"/>
    <pt x="632" y="1952" on="0"/>
    <pt x="184" y="1088" on="0"/>
    <pt x="656" y="216" on="0"/>
    <pt x="800" y="0" on="1"/>
    <pt x="456" y="160" on="0"/>
  </contour>
</TTGlyph>
<TTGlyph name="J" xMin="64" yMin="0" xMax="1400" yMax="2152">
  <contour>
    <pt x="721" y="2152" on="1"/>
    <pt x="964" y="2000" on="0"/>
    <pt x="1257" y="2152" on="1"/>
    <pt x="972" y="1760" on="0"/>
    <pt x="746" y="1032" on="0"/>
    <pt x="1332" y="408" on="0"/>
    <pt x="1089" y="0" on="0"/>
    <pt x="360" y="48" on="0"/>
    <pt x="64" y="484" on="1"/>
    <pt x="394" y="592" on="1"/>
    <pt x="511" y="328" on="0"/>
    <pt x="830" y="288" on="0"/>
    <pt x="1081" y="416" on="0"/>
    <pt x="1400" y="1316" on="0"/>
  </contour>
</TTGlyph>
<TTGlyph name="K" xMin="24" yMin="0" xMax="1615" yMax="2152">
  <contour>
    <pt x="24" y="0" on="1"/>
    <pt x="455" y="1408" on="0"/>
    <pt x="24" y="2152" on="1"/>
    <pt x="419" y="2016" on="0"/>
    <pt x="572" y="2152" on="1"/>
    <pt x="320" y="1232" on="0"/>
    <pt x="626" y="968" on="0"/>
    <pt x="1292" y="1448" on="0"/>
    <pt x="1157" y="2152" on="1"/>
    <pt x="1220" y="2024" on="0"/>
    <pt x="1615" y="2152" on="1"/>
    <pt x="788" y="1640" on="0"/>
    <pt x="554" y="1040" on="0"/>
    <pt x="977" y="520" on="0"/>
    <pt x="1247" y="288" on="0"/>
    <pt x="1615" y="0" on="1"/>
    <pt x="1175" y="136" on="0"/>
    <pt x="1157" y="0" on="1"/>
    <pt x="770" y="512" on="0"/>
    <pt x="446" y="712" on="0"/>
    <pt x="293" y="504" on="0"/>
    <pt x="563" y="0" on="1"/>
    <pt x="140" y="168" on="0"/>
  </contour>
</TTGlyph>
<TTGlyph name="L" xMin="52" yMin="-8" xMax="1444" yMax="2152">
  <contour>
    <pt x="52" y="0" on="1"/>
    <pt x="281" y="1016" on="0"/>
    <pt x="52" y="2152" on="1"/>
    <pt x="416" y="2008" on="0"/>
    <pt x="620" y="2152" on="1"/>
    <pt x="289" y="992" on="0"/>
    <pt x="620" y="-8" on="0"/>
    <pt x="1265" y="96" on="0"/>
    <pt x="1444" y="584" on="1"/>
    <pt x="1444" y="0" on="1"/>
    <pt x="943" y="400" on="0"/>
    <pt x="332" y="232" on="0"/>
  </contour>
</TTGlyph>
<TTGlyph name="M" xMin="24" yMin="0" xMax="1616" yMax="2152">
  <contour>
    <pt x="24" y="0" on="1"/>
    <pt x="259" y="640" on="0"/>
    <pt x="24" y="2152" on="1"/>
    <pt x="148" y="1976" on="0"/>
    <pt x="456" y="2152" on="1"/>
    <pt x="535" y="1104" on="0"/>
    <pt x="836" y="576" on="0"/>
    <pt x="1144" y="1120" on="0"/>
    <pt x="1183" y="2152" on="1"/>
    <pt x="1281" y="1952" on="0"/>
    <pt x="1616" y="2152" on="1"/>
    <pt x="1321" y="680" on="0"/>
    <pt x="1616" y="0" on="1"/>
    <pt x="1380" y="160" on="0"/>
    <pt x="1170" y="0" on="1"/>
    <pt x="1321" y="768" on="0"/>
    <pt x="1275" y="1504" on="1"/>
    <pt x="836" y="624" on="0"/>
    <pt x="364" y="1512" on="1"/>
    <pt x="259" y="728" on="0"/>
    <pt x="449" y="0" on="1"/>
    <pt x="227" y="184" on="0"/>
  </contour>
</TTGlyph>
<TTGlyph name="N" xMin="0" yMin="-8" xMax="1600" yMax="2144">
  <contour>
    <pt x="0" y="0" on="1"/>
    <pt x="260" y="1160" on="0"/>
    <pt x="0" y="2144" on="1"/>
    <pt x="275" y="2016" on="0"/>
    <pt x="557" y="2144" on="1"/>
    <pt x="463" y="1744" on="0"/>
    <pt x="789" y="1168" on="0"/>
    <pt x="955" y="624" on="0"/>
    <pt x="1259" y="320" on="1"/>
    <pt x="1578" y="720" on="0"/>
    <pt x="1513" y="1520" on="0"/>
    <pt x="1136" y="1912" on="0"/>
    <pt x="1078" y="2144" on="1"/>
    <pt x="1310" y="2032" on="0"/>
    <pt x="1476" y="2144" on="1"/>
    <pt x="1151" y="1504" on="0"/>
    <pt x="1404" y="384" on="0"/>
    <pt x="1600" y="-8" on="1"/>
    <pt x="1266" y="48" on="1"/>
    <pt x="1035" y="0" on="1"/>
    <pt x="1035" y="264" on="0"/>
    <pt x="666" y="656" on="0"/>
    <pt x="398" y="1184" on="0"/>
    <pt x="296" y="1800" on="1"/>
    <pt x="289" y="808" on="0"/>
    <pt x="637" y="0" on="1"/>
    <pt x="347" y="200" on="0"/>
  </contour>
</TTGlyph>
<TTGlyph name="O" xMin="12" yMin="8" xMax="1627" yMax="2152">
  <contour>
    <pt x="988" y="8" on="1"/>
    <pt x="1627" y="16" on="0"/>
    <pt x="1598" y="1128" on="1"/>
    <pt x="1503" y="1840" on="0"/>
    <pt x="857" y="1760" on="1"/>
    <pt x="437" y="1664" on="0"/>
    <pt x="372" y="912" on="1"/>
    <pt x="385" y="80" on="0"/>
  </contour>
  <contour>
    <pt x="12" y="1144" on="1"/>
    <pt x="26" y="2072" on="0"/>
    <pt x="623" y="2152" on="1"/>
    <pt x="1291" y="2104" on="0"/>
    <pt x="1248" y="1136" on="1"/>
    <pt x="1234" y="456" on="0"/>
    <pt x="752" y="384" on="1"/>
    <pt x="112" y="344" on="0"/>
  </contour>
</TTGlyph>
<TTGlyph name="P" xMin="20" yMin="0" xMax="1412" yMax="2160">
  <contour>
    <pt x="20" y="0" on="1"/>
    <pt x="340" y="992" on="0"/>
    <pt x="20" y="2152" on="1"/>
    <pt x="1018" y="2160" on="0"/>
    <pt x="1149" y="776" on="0"/>
    <pt x="442" y="656" on="1"/>
    <pt x="537" y="1032" on="1"/>
    <pt x="1156" y="980" on="0"/>
    <pt x="1412" y="1332" on="0"/>
    <pt x="1388" y="1780" on="0"/>
    <pt x="1108" y="2116" on="0"/>
    <pt x="435" y="1880" on="1"/>
    <pt x="646" y="1240" on="0"/>
    <pt x="391" y="584" on="0"/>
    <pt x="530" y="0" on="1"/>
    <pt x="362" y="144" on="0"/>
  </contour>
</TTGlyph>
<TTGlyph name="Q" xMin="16" yMin="0" xMax="1624" yMax="2153">
  <contour>
    <pt x="672" y="0" on="1"/>
    <pt x="1384" y="88" on="0"/>
    <pt x="1272" y="1104" on="1"/>
    <pt x="1120" y="1824" on="0"/>
    <pt x="653" y="1841" on="1"/>
    <pt x="60" y="1888" on="0"/>
    <pt x="16" y="1040" on="1"/>
    <pt x="30" y="96" on="0"/>
  </contour>
  <contour>
    <pt x="1624" y="1216" on="1"/>
    <pt x="1524" y="376" on="0"/>
    <pt x="990" y="410" on="1"/>
    <pt x="497" y="389" on="0"/>
    <pt x="360" y="1168" on="1"/>
    <pt x="344" y="2128" on="0"/>
    <pt x="1000" y="2153" on="1"/>
    <pt x="1624" y="2076" on="0"/>
  </contour>
  <contour>
    <pt x="704" y="568" on="1"/>
    <pt x="1232" y="392" on="0"/>
    <pt x="1336" y="0" on="1"/>
    <pt x="1456" y="208" on="0"/>
    <pt x="1624" y="272" on="1"/>
    <pt x="1200" y="480" on="0"/>
    <pt x="1008" y="1048" on="1"/>
    <pt x="936" y="696" on="0"/>
  </contour>
</TTGlyph>
<TTGlyph name="R" xMin="24" yMin="0" xMax="1615" yMax="2152">
  <contour>
    <pt x="39" y="8" on="1"/>
    <pt x="304" y="856" on="0"/>
    <pt x="24" y="2152" on="1"/>
    <pt x="1100" y="2104" on="0"/>
    <pt x="1264" y="1856" on="0"/>
    <pt x="1186" y="1400" on="0"/>
    <pt x="913" y="1032" on="1"/>
    <pt x="1030" y="520" on="0"/>
    <pt x="1615" y="0" on="1"/>
    <pt x="1178" y="128" on="0"/>
    <pt x="1077" y="0" on="1"/>
    <pt x="937" y="600" on="0"/>
    <pt x="554" y="920" on="1"/>
    <pt x="617" y="1488" on="0"/>
    <pt x="1459" y="1120" on="0"/>
    <pt x="1561" y="1952" on="0"/>
    <pt x="710" y="1600" on="0"/>
    <pt x="359" y="1856" on="1"/>
    <pt x="671" y="992" on="0"/>
    <pt x="336" y="328" on="0"/>
    <pt x="609" y="0" on="1"/>
    <pt x="258" y="152" on="0"/>
  </contour>
</TTGlyph>
<TTGlyph name="S" xMin="4" yMin="8" xMax="1596" yMax="2160">
  <contour>
    <pt x="1184" y="1652" on="1"/>
    <pt x="687" y="2160" on="0"/>
    <pt x="4" y="1936" on="0"/>
    <pt x="4" y="1040" on="0"/>
    <pt x="1371" y="1200" on="0"/>
    <pt x="1596" y="392" on="0"/>
    <pt x="940" y="16" on="0"/>
    <pt x="603" y="8" on="0"/>
    <pt x="275" y="88" on="0"/>
    <pt x="4" y="8" on="1"/>
    <pt x="135" y="200" on="0"/>
    <pt x="4" y="472" on="1"/>
    <pt x="256" y="320" on="0"/>
    <pt x="1052" y="384" on="0"/>
    <pt x="1109" y="792" on="0"/>
    <pt x="444" y="808" on="0"/>
    <pt x="275" y="1304" on="0"/>
    <pt x="519" y="1984" on="0"/>
    <pt x="1099" y="2160" on="0"/>
    <pt x="1280" y="2148" on="1"/>
    <pt x="1140" y="1932" on="0"/>
  </contour>
</TTGlyph>
<TTGlyph name="T" xMin="24" yMin="0" xMax="1615" yMax="2152">
  <contour>
    <pt x="31" y="2152" on="1"/>
    <pt x="812" y="1888" on="0"/>
    <pt x="1600" y="2152" on="1"/>
    <pt x="1473" y="1808" on="0"/>
    <pt x="1615" y="1400" on="1"/>
    <pt x="887" y="1840" on="0"/>
    <pt x="437" y="1176" on="0"/>
    <pt x="985" y="168" on="0"/>
    <pt x="1090" y="0" on="1"/>
    <pt x="812" y="112" on="0"/>
    <pt x="534" y="0" on="1"/>
    <pt x="632" y="160" on="0"/>
    <pt x="1187" y="1176" on="0"/>
    <pt x="737" y="1840" on="0"/>
    <pt x="24" y="1400" on="1"/>
    <pt x="136" y="1872" on="0"/>
  </contour>
</TTGlyph>
<TTGlyph name="U" xMin="20" yMin="4" xMax="1620" yMax="2148">
  <contour>
    <pt x="20" y="2148" on="1"/>
    <pt x="236" y="2060" on="0"/>
    <pt x="500" y="2148" on="1"/>
    <pt x="340" y="1948" on="0"/>
    <pt x="436" y="1548" on="0"/>
    <pt x="284" y="1044" on="0"/>
    <pt x="532" y="580" on="0"/>
    <pt x="988" y="212" on="0"/>
    <pt x="1620" y="796" on="0"/>
    <pt x="1620" y="1332" on="0"/>
    <pt x="1284" y="1860" on="0"/>
    <pt x="1040" y="2148" on="1"/>
    <pt x="1264" y="2020" on="0"/>
    <pt x="1464" y="2148" on="1"/>
    <pt x="1620" y="1868" on="0"/>
    <pt x="1068" y="1148" on="0"/>
    <pt x="1620" y="356" on="0"/>
    <pt x="1268" y="4" on="0"/>
    <pt x="828" y="12" on="0"/>
    <pt x="572" y="108" on="0"/>
    <pt x="156" y="412" on="0"/>
    <pt x="52" y="1012" on="0"/>
    <pt x="100" y="1852" on="0"/>
  </contour>
</TTGlyph>
<TTGlyph name="V" xMin="24" yMin="24" xMax="1616" yMax="2184">
  <contour>
    <pt x="631" y="2184" on="1"/>
    <pt x="431" y="1973" on="0"/>
    <pt x="531" y="1169" on="0"/>
    <pt x="946" y="24" on="1"/>
    <pt x="1185" y="1803" on="0"/>
    <pt x="1616" y="2184" on="1"/>
    <pt x="1369" y="2055" on="0"/>
    <pt x="1146" y="2184" on="1"/>
    <pt x="893" y="1941" on="0"/>
    <pt x="908" y="276" on="0"/>
    <pt x="700" y="98" on="0"/>
    <pt x="193" y="837" on="0"/>
    <pt x="24" y="2184" on="1"/>
    <pt x="285" y="1949" on="0"/>
  </contour>
</TTGlyph>
<TTGlyph name="W" xMin="24" yMin="-8" xMax="1615" yMax="2152">
  <contour>
    <pt x="24" y="2144" on="1"/>
    <pt x="280" y="1432" on="0"/>
    <pt x="431" y="328" on="0"/>
    <pt x="205" y="-8" on="1"/>
    <pt x="763" y="176" on="0"/>
    <pt x="823" y="728" on="1"/>
    <pt x="899" y="184" on="0"/>
    <pt x="1434" y="0" on="1"/>
    <pt x="1208" y="352" on="0"/>
    <pt x="1118" y="1432" on="0"/>
    <pt x="1261" y="1952" on="0"/>
    <pt x="1072" y="2144" on="1"/>
    <pt x="1344" y="1992" on="0"/>
    <pt x="1615" y="2152" on="1"/>
    <pt x="1397" y="1440" on="0"/>
    <pt x="1419" y="544" on="0"/>
    <pt x="959" y="1120" on="0"/>
    <pt x="718" y="1120" on="0"/>
    <pt x="552" y="632" on="0"/>
    <pt x="544" y="1424" on="0"/>
    <pt x="363" y="1936" on="0"/>
    <pt x="567" y="2144" on="1"/>
    <pt x="265" y="2008" on="0"/>
  </contour>
</TTGlyph>
<TTGlyph name="X" xMin="14" yMin="0" xMax="1610" yMax="2152">
  <contour>
    <pt x="14" y="2152" on="1"/>
    <pt x="269" y="1992" on="0"/>
    <pt x="519" y="2152" on="1"/>
    <pt x="489" y="1608" on="0"/>
    <pt x="1370" y="592" on="0"/>
    <pt x="1610" y="0" on="1"/>
    <pt x="1338" y="128" on="0"/>
    <pt x="1104" y="0" on="1"/>
    <pt x="1096" y="392" on="0"/>
    <pt x="118" y="1696" on="0"/>
  </contour>
  <contour>
    <pt x="14" y="8" on="1"/>
    <pt x="222" y="456" on="0"/>
    <pt x="947" y="696" on="0"/>
    <pt x="1410" y="1376" on="0"/>
    <pt x="1119" y="1848" on="0"/>
    <pt x="1089" y="2152" on="1"/>
    <pt x="1336" y="2008" on="0"/>
    <pt x="1589" y="2152" on="1"/>
    <pt x="1245" y="1576" on="0"/>
    <pt x="454" y="752" on="0"/>
    <pt x="513" y="0" on="1"/>
    <pt x="252" y="128" on="0"/>
  </contour>
</TTGlyph>
<TTGlyph name="Y" xMin="24" yMin="0" xMax="1615" yMax="2152">
  <contour>
    <pt x="24" y="2152" on="1"/>
    <pt x="197" y="1512" on="0"/>
    <pt x="793" y="1352" on="0"/>
    <pt x="378" y="424" on="0"/>
    <pt x="24" y="0" on="1"/>
    <pt x="363" y="128" on="0"/>
    <pt x="604" y="0" on="1"/>
    <pt x="627" y="456" on="0"/>
    <pt x="1140" y="1728" on="0"/>
    <pt x="1615" y="1848" on="0"/>
    <pt x="1615" y="2152" on="1"/>
    <pt x="1427" y="1992" on="0"/>
    <pt x="1140" y="2152" on="1"/>
    <pt x="1495" y="1784" on="0"/>
    <pt x="1291" y="1232" on="0"/>
    <pt x="438" y="1800" on="0"/>
    <pt x="491" y="2152" on="1"/>
    <pt x="325" y="1936" on="0"/>
  </contour>
</TTGlyph>
<TTGlyph name="Z" xMin="16" yMin="0" xMax="1623" yMax="2152">
  <contour>
    <pt x="232" y="1524" on="1"/>
    <pt x="381" y="1792" on="0"/>
    <pt x="1311" y="1672" on="0"/>
    <pt x="1616" y="1928" on="1"/>
    <pt x="1296" y="1192" on="0"/>
    <pt x="572" y="744" on="0"/>
    <pt x="404" y="400" on="1"/>
    <pt x="938" y="632" on="0"/>
    <pt x="1357" y="368" on="0"/>
    <pt x="1623" y="704" on="1"/>
    <pt x="1463" y="248" on="0"/>
    <pt x="1623" y="0" on="1"/>
    <pt x="846" y="312" on="0"/>
    <pt x="16" y="16" on="1"/>
    <pt x="191" y="248" on="0"/>
    <pt x="16" y="488" on="1"/>
    <pt x="290" y="984" on="0"/>
    <pt x="1143" y="1488" on="0"/>
    <pt x="1334" y="2152" on="1"/>
    <pt x="656" y="2000" on="0"/>
    <pt x="168" y="2148" on="1"/>
    <pt x="312" y="1876" on="0"/>
  </contour>
</TTGlyph>
<TTGlyph name="a" xMin="49" yMin="0" xMax="1047" yMax="1289">
  <contour>
    <pt x="1047" y="0" on="1"/>
    <pt x="393" y="797" on="0"/>
    <pt x="879" y="1289" on="1"/>
    <pt x="242" y="826" on="0"/>
    <pt x="49" y="0" on="1"/>
    <pt x="162" y="30" on="1"/>
    <pt x="276" y="0" on="1"/>
    <pt x="279" y="1141" on="0"/>
    <pt x="600" y="1198" on="0"/>
    <pt x="526" y="740" on="0"/>
    <pt x="756" y="0" on="1"/>
    <pt x="907" y="35" on="1"/>
  </contour>
  <contour>
    <pt x="152" y="1096" on="1"/>
    <pt x="152" y="1096" on="1"/>
  </contour>
  <contour>
    <pt x="49" y="599" on="1"/>
    <pt x="742" y="638" on="0"/>
    <pt x="939" y="824" on="1"/>
    <pt x="928" y="707" on="0"/>
    <pt x="1047" y="607" on="1"/>
    <pt x="904" y="643" on="0"/>
    <pt x="308" y="532" on="0"/>
    <pt x="170" y="440" on="1"/>
    <pt x="210" y="552" on="0"/>
  </contour>
</TTGlyph>
<TTGlyph name="b" xMin="41" yMin="-8" xMax="1011" yMax="1292">
  <contour>
    <pt x="45" y="-8" on="1"/>
    <pt x="384" y="1015" on="0"/>
    <pt x="41" y="1280" on="1"/>
    <pt x="1000" y="1292" on="0"/>
    <pt x="394" y="800" on="1"/>
    <pt x="881" y="718" on="0"/>
    <pt x="1011" y="315" on="0"/>
    <pt x="803" y="46" on="0"/>
    <pt x="302" y="-8" on="1"/>
  </contour>
  <contour>
    <pt x="256" y="8" on="1"/>
    <pt x="309" y="223" on="1"/>
    <pt x="862" y="237" on="0"/>
    <pt x="850" y="617" on="0"/>
    <pt x="337" y="804" on="1"/>
    <pt x="804" y="805" on="0"/>
    <pt x="903" y="1002" on="0"/>
    <pt x="740" y="1116" on="0"/>
    <pt x="252" y="1152" on="1"/>
    <pt x="413" y="952" on="0"/>
    <pt x="333" y="159" on="0"/>
  </contour>
</TTGlyph>
<TTGlyph name="c" xMin="54" yMin="-16" xMax="1043" yMax="1281">
  <contour>
    <pt x="1020" y="489" on="1"/>
    <pt x="1043" y="-1" on="0"/>
    <pt x="596" y="-16" on="1"/>
    <pt x="85" y="23" on="0"/>
    <pt x="54" y="484" on="1"/>
    <pt x="54" y="614" on="0"/>
    <pt x="54" y="758" on="1"/>
    <pt x="152" y="1114" on="0"/>
    <pt x="569" y="1119" on="1"/>
    <pt x="962" y="1104" on="0"/>
    <pt x="1020" y="844" on="1"/>
    <pt x="852" y="844" on="1"/>
    <pt x="894" y="1228" on="0"/>
    <pt x="573" y="1281" on="1"/>
    <pt x="162" y="1209" on="0"/>
    <pt x="189" y="768" on="1"/>
    <pt x="194" y="614" on="0"/>
    <pt x="198" y="484" on="1"/>
    <pt x="235" y="167" on="0"/>
    <pt x="591" y="153" on="1"/>
    <pt x="880" y="153" on="0"/>
    <pt x="852" y="489" on="1"/>
  </contour>
</TTGlyph>
<TTGlyph name="d" xMin="45" yMin="-8" xMax="1050" yMax="1288">
  <contour>
    <pt x="45" y="-3" on="1"/>
    <pt x="445" y="967" on="0"/>
    <pt x="45" y="1288" on="1"/>
    <pt x="635" y="1178" on="0"/>
    <pt x="850" y="842" on="0"/>
    <pt x="822" y="277" on="0"/>
    <pt x="664" y="-8" on="0"/>
    <pt x="206" y="7" on="1"/>
    <pt x="229" y="156" on="1"/>
    <pt x="860" y="185" on="0"/>
    <pt x="1017" y="445" on="0"/>
    <pt x="1050" y="713" on="0"/>
    <pt x="907" y="886" on="0"/>
    <pt x="616" y="920" on="0"/>
    <pt x="344" y="1068" on="1"/>
    <pt x="568" y="742" on="0"/>
    <pt x="229" y="7" on="1"/>
  </contour>
</TTGlyph>
<TTGlyph name="e" xMin="54" yMin="0" xMax="1041" yMax="1300">
  <contour>
    <pt x="54" y="0" on="1"/>
    <pt x="363" y="903" on="0"/>
    <pt x="58" y="1298" on="1"/>
    <pt x="642" y="879" on="0"/>
    <pt x="888" y="1300" on="1"/>
    <pt x="888" y="1025" on="1"/>
    <pt x="692" y="1300" on="0"/>
    <pt x="270" y="1192" on="0"/>
    <pt x="350" y="551" on="0"/>
    <pt x="757" y="787" on="1"/>
    <pt x="757" y="531" on="1"/>
    <pt x="266" y="657" on="0"/>
    <pt x="407" y="44" on="0"/>
    <pt x="1041" y="290" on="1"/>
    <pt x="1041" y="0" on="1"/>
    <pt x="500" y="131" on="0"/>
  </contour>
</TTGlyph>
<TTGlyph name="f" xMin="44" yMin="0" xMax="1052" yMax="1300">
  <contour>
    <pt x="44" y="0" on="1"/>
    <pt x="425" y="817" on="0"/>
    <pt x="44" y="1300" on="1"/>
    <pt x="696" y="856" on="0"/>
    <pt x="1052" y="1300" on="1"/>
    <pt x="1052" y="962" on="1"/>
    <pt x="833" y="1300" on="0"/>
    <pt x="311" y="1233" on="0"/>
    <pt x="531" y="628" on="0"/>
    <pt x="865" y="827" on="1"/>
    <pt x="865" y="526" on="1"/>
    <pt x="642" y="681" on="0"/>
    <pt x="319" y="370" on="0"/>
    <pt x="573" y="0" on="1"/>
    <pt x="399" y="151" on="0"/>
  </contour>
</TTGlyph>
<TTGlyph name="g" xMin="48" yMin="0" xMax="1047" yMax="1308">
  <contour>
    <pt x="942" y="897" on="1"/>
    <pt x="792" y="780" on="1"/>
    <pt x="714" y="875" on="0"/>
    <pt x="739" y="1240" on="0"/>
    <pt x="505" y="1308" on="0"/>
    <pt x="401" y="1308" on="0"/>
    <pt x="261" y="1287" on="0"/>
    <pt x="102" y="1072" on="0"/>
    <pt x="181" y="298" on="0"/>
    <pt x="758" y="122" on="0"/>
    <pt x="792" y="439" on="1"/>
    <pt x="641" y="439" on="1"/>
    <pt x="641" y="609" on="1"/>
    <pt x="1047" y="609" on="1"/>
    <pt x="1047" y="439" on="1"/>
    <pt x="942" y="439" on="1"/>
    <pt x="896" y="39" on="0"/>
    <pt x="557" y="0" on="0"/>
    <pt x="298" y="54" on="0"/>
    <pt x="68" y="351" on="0"/>
    <pt x="48" y="848" on="0"/>
    <pt x="177" y="1097" on="0"/>
    <pt x="495" y="1162" on="0"/>
    <pt x="853" y="1060" on="0"/>
  </contour>
</TTGlyph>
<TTGlyph name="h" xMin="49" yMin="0" xMax="1047" yMax="1289">
  <contour>
    <pt x="49" y="0" on="1"/>
    <pt x="281" y="606" on="0"/>
    <pt x="49" y="1284" on="1"/>
    <pt x="301" y="1126" on="0"/>
    <pt x="394" y="1284" on="1"/>
    <pt x="301" y="893" on="0"/>
    <pt x="335" y="511" on="0"/>
    <pt x="740" y="511" on="0"/>
    <pt x="808" y="888" on="0"/>
    <pt x="731" y="1289" on="1"/>
    <pt x="804" y="1117" on="0"/>
    <pt x="1047" y="1284" on="1"/>
    <pt x="814" y="616" on="0"/>
    <pt x="1047" y="0" on="1"/>
    <pt x="794" y="134" on="0"/>
    <pt x="731" y="0" on="1"/>
    <pt x="842" y="377" on="0"/>
    <pt x="706" y="749" on="0"/>
    <pt x="409" y="759" on="0"/>
    <pt x="233" y="239" on="0"/>
    <pt x="394" y="0" on="1"/>
    <pt x="272" y="134" on="0"/>
  </contour>
</TTGlyph>
<TTGlyph name="i" xMin="88" yMin="0" xMax="671" yMax="1676">
  <contour>
    <pt x="88" y="0" on="1"/>
    <pt x="233" y="136" on="0"/>
    <pt x="631" y="617" on="0"/>
    <pt x="192" y="1040" on="0"/>
    <pt x="176" y="1260" on="1"/>
    <pt x="392" y="1141" on="0"/>
    <pt x="544" y="1250" on="1"/>
    <pt x="520" y="1030" on="0"/>
    <pt x="160" y="627" on="0"/>
    <pt x="552" y="126" on="0"/>
    <pt x="671" y="0" on="1"/>
    <pt x="385" y="95" on="0"/>
  </contour>
  <contour>
    <pt x="360" y="1420" on="1"/>
    <pt x="240" y="1428" on="0"/>
    <pt x="192" y="1564" on="0"/>
    <pt x="296" y="1660" on="0"/>
    <pt x="408" y="1676" on="0"/>
    <pt x="512" y="1556" on="0"/>
    <pt x="480" y="1428" on="0"/>
  </contour>
</TTGlyph>
<TTGlyph name="j" xMin="68" yMin="0" xMax="804" yMax="1636">
  <contour>
    <pt x="437" y="1280" on="1"/>
    <pt x="574" y="1190" on="0"/>
    <pt x="739" y="1280" on="1"/>
    <pt x="700" y="1151" on="0"/>
    <pt x="532" y="929" on="0"/>
    <pt x="451" y="615" on="0"/>
    <pt x="781" y="244" on="0"/>
    <pt x="644" y="0" on="0"/>
    <pt x="234" y="29" on="0"/>
    <pt x="68" y="289" on="1"/>
    <pt x="253" y="353" on="1"/>
    <pt x="319" y="197" on="0"/>
    <pt x="499" y="173" on="0"/>
    <pt x="640" y="248" on="0"/>
    <pt x="804" y="910" on="0"/>
    <pt x="460" y="1102" on="0"/>
  </contour>
  <contour>
    <pt x="572" y="1428" on="1"/>
    <pt x="468" y="1452" on="0"/>
    <pt x="460" y="1588" on="0"/>
    <pt x="580" y="1636" on="0"/>
    <pt x="676" y="1588" on="0"/>
    <pt x="668" y="1452" on="0"/>
  </contour>
</TTGlyph>
<TTGlyph name="k" xMin="45" yMin="0" xMax="1051" yMax="1297">
  <contour>
    <pt x="45" y="0" on="1"/>
    <pt x="316" y="849" on="0"/>
    <pt x="45" y="1297" on="1"/>
    <pt x="295" y="1215" on="0"/>
    <pt x="391" y="1297" on="1"/>
    <pt x="232" y="744" on="0"/>
    <pt x="425" y="584" on="0"/>
    <pt x="847" y="873" on="0"/>
    <pt x="761" y="1297" on="1"/>
    <pt x="800" y="1220" on="0"/>
    <pt x="1051" y="1297" on="1"/>
    <pt x="528" y="988" on="0"/>
    <pt x="380" y="628" on="0"/>
    <pt x="647" y="315" on="0"/>
    <pt x="818" y="175" on="0"/>
    <pt x="1051" y="0" on="1"/>
    <pt x="772" y="83" on="0"/>
    <pt x="761" y="0" on="1"/>
    <pt x="516" y="310" on="0"/>
    <pt x="311" y="430" on="0"/>
    <pt x="215" y="305" on="0"/>
    <pt x="385" y="0" on="1"/>
    <pt x="118" y="103" on="0"/>
  </contour>
</TTGlyph>
<TTGlyph name="l" xMin="98" yMin="5" xMax="758" yMax="1313">
  <contour>
    <pt x="98" y="5" on="1"/>
    <pt x="261" y="623" on="0"/>
    <pt x="98" y="1313" on="1"/>
    <pt x="357" y="1225" on="0"/>
    <pt x="502" y="1313" on="1"/>
    <pt x="266" y="608" on="0"/>
    <pt x="382" y="13" on="0"/>
    <pt x="590" y="61" on="0"/>
    <pt x="646" y="239" on="0"/>
    <pt x="710" y="272" on="1"/>
    <pt x="758" y="21" on="1"/>
    <pt x="574" y="345" on="0"/>
    <pt x="310" y="199" on="0"/>
    <pt x="254" y="45" on="0"/>
  </contour>
</TTGlyph>
<TTGlyph name="m" xMin="52" yMin="0" xMax="1043" yMax="1297">
  <contour>
    <pt x="52" y="0" on="1"/>
    <pt x="198" y="387" on="0"/>
    <pt x="52" y="1297" on="1"/>
    <pt x="128" y="1191" on="0"/>
    <pt x="320" y="1297" on="1"/>
    <pt x="369" y="666" on="0"/>
    <pt x="557" y="348" on="0"/>
    <pt x="749" y="675" on="0"/>
    <pt x="773" y="1297" on="1"/>
    <pt x="835" y="1177" on="0"/>
    <pt x="1043" y="1297" on="1"/>
    <pt x="859" y="411" on="0"/>
    <pt x="1043" y="0" on="1"/>
    <pt x="895" y="98" on="0"/>
    <pt x="765" y="0" on="1"/>
    <pt x="859" y="463" on="0"/>
    <pt x="830" y="907" on="1"/>
    <pt x="557" y="377" on="0"/>
    <pt x="263" y="912" on="1"/>
    <pt x="198" y="439" on="0"/>
    <pt x="316" y="0" on="1"/>
    <pt x="177" y="111" on="0"/>
  </contour>
</TTGlyph>
<TTGlyph name="n" xMin="49" yMin="-8" xMax="1047" yMax="1297">
  <contour>
    <pt x="49" y="-1" on="1"/>
    <pt x="211" y="701" on="0"/>
    <pt x="49" y="1297" on="1"/>
    <pt x="219" y="1219" on="0"/>
    <pt x="396" y="1297" on="1"/>
    <pt x="337" y="1055" on="0"/>
    <pt x="540" y="706" on="0"/>
    <pt x="645" y="376" on="0"/>
    <pt x="835" y="192" on="1"/>
    <pt x="1033" y="434" on="0"/>
    <pt x="993" y="919" on="0"/>
    <pt x="758" y="1156" on="0"/>
    <pt x="721" y="1297" on="1"/>
    <pt x="867" y="1229" on="0"/>
    <pt x="971" y="1297" on="1"/>
    <pt x="767" y="909" on="0"/>
    <pt x="925" y="230" on="0"/>
    <pt x="1047" y="-8" on="1"/>
    <pt x="839" y="28" on="1"/>
    <pt x="694" y="-1" on="1"/>
    <pt x="694" y="158" on="0"/>
    <pt x="464" y="396" on="0"/>
    <pt x="297" y="716" on="0"/>
    <pt x="233" y="1089" on="1"/>
    <pt x="228" y="488" on="0"/>
    <pt x="446" y="-1" on="1"/>
    <pt x="265" y="119" on="0"/>
  </contour>
</TTGlyph>
<TTGlyph name="o" xMin="49" yMin="8" xMax="1047" yMax="1287">
  <contour>
    <pt x="681" y="8" on="1"/>
    <pt x="1047" y="13" on="0"/>
    <pt x="1047" y="585" on="1"/>
    <pt x="972" y="1008" on="0"/>
    <pt x="702" y="999" on="1"/>
    <pt x="298" y="976" on="0"/>
    <pt x="248" y="504" on="1"/>
    <pt x="254" y="51" on="0"/>
  </contour>
  <contour>
    <pt x="49" y="679" on="1"/>
    <pt x="56" y="1235" on="0"/>
    <pt x="422" y="1287" on="1"/>
    <pt x="837" y="1256" on="0"/>
    <pt x="812" y="673" on="1"/>
    <pt x="802" y="264" on="0"/>
    <pt x="504" y="221" on="1"/>
    <pt x="109" y="192" on="0"/>
  </contour>
</TTGlyph>
<TTGlyph name="p" xMin="48" yMin="0" xMax="1047" yMax="1305">
  <contour>
    <pt x="48" y="0" on="1"/>
    <pt x="277" y="599" on="0"/>
    <pt x="48" y="1300" on="1"/>
    <pt x="764" y="1305" on="0"/>
    <pt x="859" y="469" on="0"/>
    <pt x="351" y="397" on="1"/>
    <pt x="419" y="624" on="1"/>
    <pt x="864" y="592" on="0"/>
    <pt x="1047" y="805" on="0"/>
    <pt x="1030" y="1075" on="0"/>
    <pt x="829" y="1278" on="0"/>
    <pt x="346" y="1135" on="1"/>
    <pt x="497" y="749" on="0"/>
    <pt x="314" y="353" on="0"/>
    <pt x="414" y="0" on="1"/>
    <pt x="293" y="87" on="0"/>
  </contour>
</TTGlyph>
<TTGlyph name="q" xMin="44" yMin="-8" xMax="1051" yMax="1290">
  <contour>
    <pt x="447" y="-8" on="1"/>
    <pt x="884" y="83" on="0"/>
    <pt x="858" y="593" on="1"/>
    <pt x="828" y="1068" on="0"/>
    <pt x="476" y="1108" on="1"/>
    <pt x="63" y="1083" on="0"/>
    <pt x="44" y="584" on="1"/>
    <pt x="46" y="49" on="0"/>
  </contour>
  <contour>
    <pt x="1051" y="622" on="1"/>
    <pt x="996" y="172" on="0"/>
    <pt x="694" y="169" on="1"/>
    <pt x="389" y="140" on="0"/>
    <pt x="305" y="590" on="1"/>
    <pt x="292" y="1253" on="0"/>
    <pt x="705" y="1290" on="1"/>
    <pt x="1038" y="1214" on="0"/>
  </contour>
  <contour>
    <pt x="476" y="372" on="1"/>
    <pt x="775" y="231" on="0"/>
    <pt x="849" y="8" on="1"/>
    <pt x="900" y="132" on="0"/>
    <pt x="980" y="156" on="1"/>
    <pt x="724" y="236" on="0"/>
    <pt x="635" y="586" on="1"/>
    <pt x="607" y="401" on="0"/>
  </contour>
</TTGlyph>
<TTGlyph name="r" xMin="53" yMin="0" xMax="1043" yMax="1297">
  <contour>
    <pt x="62" y="5" on="1"/>
    <pt x="227" y="516" on="0"/>
    <pt x="53" y="1297" on="1"/>
    <pt x="723" y="1268" on="0"/>
    <pt x="825" y="1118" on="0"/>
    <pt x="776" y="844" on="0"/>
    <pt x="606" y="622" on="1"/>
    <pt x="679" y="314" on="0"/>
    <pt x="1043" y="0" on="1"/>
    <pt x="771" y="78" on="0"/>
    <pt x="708" y="0" on="1"/>
    <pt x="621" y="362" on="0"/>
    <pt x="383" y="555" on="1"/>
    <pt x="422" y="897" on="0"/>
    <pt x="946" y="675" on="0"/>
    <pt x="1010" y="1176" on="0"/>
    <pt x="480" y="964" on="0"/>
    <pt x="261" y="1118" on="1"/>
    <pt x="456" y="598" on="0"/>
    <pt x="247" y="198" on="0"/>
    <pt x="417" y="0" on="1"/>
    <pt x="198" y="92" on="0"/>
  </contour>
</TTGlyph>
<TTGlyph name="s" xMin="48" yMin="8" xMax="1048" yMax="1312">
  <contour>
    <pt x="789" y="1005" on="1"/>
    <pt x="477" y="1312" on="0"/>
    <pt x="48" y="1177" on="0"/>
    <pt x="48" y="634" on="0"/>
    <pt x="906" y="731" on="0"/>
    <pt x="1048" y="241" on="0"/>
    <pt x="635" y="13" on="0"/>
    <pt x="424" y="8" on="0"/>
    <pt x="218" y="57" on="0"/>
    <pt x="48" y="8" on="1"/>
    <pt x="130" y="125" on="0"/>
    <pt x="48" y="290" on="1"/>
    <pt x="206" y="198" on="0"/>
    <pt x="706" y="236" on="0"/>
    <pt x="742" y="484" on="0"/>
    <pt x="324" y="493" on="0"/>
    <pt x="218" y="794" on="0"/>
    <pt x="371" y="1206" on="0"/>
    <pt x="735" y="1312" on="0"/>
    <pt x="849" y="1305" on="1"/>
    <pt x="761" y="1174" on="0"/>
  </contour>
</TTGlyph>
<TTGlyph name="t" xMin="48" yMin="0" xMax="1047" yMax="1312">
  <contour>
    <pt x="52" y="1312" on="1"/>
    <pt x="542" y="1152" on="0"/>
    <pt x="1037" y="1312" on="1"/>
    <pt x="957" y="1103" on="0"/>
    <pt x="1047" y="854" on="1"/>
    <pt x="589" y="1122" on="0"/>
    <pt x="307" y="717" on="0"/>
    <pt x="651" y="103" on="0"/>
    <pt x="717" y="0" on="1"/>
    <pt x="542" y="69" on="0"/>
    <pt x="368" y="0" on="1"/>
    <pt x="429" y="98" on="0"/>
    <pt x="778" y="717" on="0"/>
    <pt x="495" y="1122" on="0"/>
    <pt x="48" y="854" on="1"/>
    <pt x="118" y="1142" on="0"/>
  </contour>
</TTGlyph>
<TTGlyph name="u" xMin="48" yMin="4" xMax="1048" yMax="1293">
  <contour>
    <pt x="48" y="1293" on="1"/>
    <pt x="183" y="1240" on="0"/>
    <pt x="348" y="1293" on="1"/>
    <pt x="248" y="1172" on="0"/>
    <pt x="308" y="932" on="0"/>
    <pt x="213" y="629" on="0"/>
    <pt x="368" y="351" on="0"/>
    <pt x="653" y="129" on="0"/>
    <pt x="1048" y="480" on="0"/>
    <pt x="1048" y="802" on="0"/>
    <pt x="838" y="1119" on="0"/>
    <pt x="685" y="1293" on="1"/>
    <pt x="825" y="1216" on="0"/>
    <pt x="950" y="1293" on="1"/>
    <pt x="1048" y="1124" on="0"/>
    <pt x="703" y="692" on="0"/>
    <pt x="1048" y="216" on="0"/>
    <pt x="828" y="4" on="0"/>
    <pt x="553" y="9" on="0"/>
    <pt x="393" y="67" on="0"/>
    <pt x="133" y="250" on="0"/>
    <pt x="68" y="610" on="0"/>
    <pt x="98" y="1115" on="0"/>
  </contour>
</TTGlyph>
<TTGlyph name="v" xMin="49" yMin="24" xMax="1047" yMax="1312">
  <contour>
    <pt x="430" y="1312" on="1"/>
    <pt x="304" y="1187" on="0"/>
    <pt x="367" y="707" on="0"/>
    <pt x="628" y="24" on="1"/>
    <pt x="777" y="1085" on="0"/>
    <pt x="1047" y="1312" on="1"/>
    <pt x="893" y="1235" on="0"/>
    <pt x="753" y="1312" on="1"/>
    <pt x="593" y="1167" on="0"/>
    <pt x="603" y="175" on="0"/>
    <pt x="473" y="68" on="0"/>
    <pt x="154" y="509" on="0"/>
    <pt x="49" y="1312" on="1"/>
    <pt x="211" y="1172" on="0"/>
  </contour>
</TTGlyph>
<TTGlyph name="w" xMin="48" yMin="-8" xMax="1047" yMax="1297">
  <contour>
    <pt x="48" y="1293" on="1"/>
    <pt x="208" y="863" on="0"/>
    <pt x="303" y="196" on="0"/>
    <pt x="161" y="-8" on="1"/>
    <pt x="511" y="104" on="0"/>
    <pt x="549" y="437" on="1"/>
    <pt x="597" y="109" on="0"/>
    <pt x="932" y="-3" on="1"/>
    <pt x="790" y="211" on="0"/>
    <pt x="734" y="863" on="0"/>
    <pt x="824" y="1176" on="0"/>
    <pt x="705" y="1293" on="1"/>
    <pt x="876" y="1201" on="0"/>
    <pt x="1047" y="1297" on="1"/>
    <pt x="909" y="868" on="0"/>
    <pt x="923" y="326" on="0"/>
    <pt x="634" y="674" on="0"/>
    <pt x="483" y="674" on="0"/>
    <pt x="379" y="380" on="0"/>
    <pt x="373" y="858" on="0"/>
    <pt x="260" y="1167" on="0"/>
    <pt x="388" y="1293" on="1"/>
    <pt x="198" y="1211" on="0"/>
  </contour>
</TTGlyph>
<TTGlyph name="x" xMin="44" yMin="0" xMax="1052" yMax="1305">
  <contour>
    <pt x="52" y="1289" on="1"/>
    <pt x="212" y="1193" on="0"/>
    <pt x="369" y="1289" on="1"/>
    <pt x="350" y="963" on="0"/>
    <pt x="899" y="356" on="0"/>
    <pt x="1052" y="0" on="1"/>
    <pt x="880" y="78" on="0"/>
    <pt x="734" y="0" on="1"/>
    <pt x="728" y="235" on="0"/>
    <pt x="117" y="1017" on="0"/>
  </contour>
  <contour>
    <pt x="44" y="7" on="1"/>
    <pt x="175" y="277" on="0"/>
    <pt x="635" y="423" on="0"/>
    <pt x="928" y="835" on="0"/>
    <pt x="744" y="1121" on="0"/>
    <pt x="726" y="1305" on="1"/>
    <pt x="881" y="1218" on="0"/>
    <pt x="1044" y="1305" on="1"/>
    <pt x="824" y="956" on="0"/>
    <pt x="322" y="457" on="0"/>
    <pt x="361" y="0" on="1"/>
    <pt x="195" y="79" on="0"/>
  </contour>
</TTGlyph>
<TTGlyph name="y" xMin="48" yMin="0" xMax="1047" yMax="1289">
  <contour>
    <pt x="48" y="1289" on="1"/>
    <pt x="156" y="905" on="0"/>
    <pt x="530" y="810" on="0"/>
    <pt x="270" y="254" on="0"/>
    <pt x="48" y="0" on="1"/>
    <pt x="260" y="77" on="0"/>
    <pt x="412" y="0" on="1"/>
    <pt x="426" y="273" on="0"/>
    <pt x="748" y="1035" on="0"/>
    <pt x="1047" y="1107" on="0"/>
    <pt x="1047" y="1289" on="1"/>
    <pt x="928" y="1193" on="0"/>
    <pt x="748" y="1289" on="1"/>
    <pt x="971" y="1068" on="0"/>
    <pt x="843" y="738" on="0"/>
    <pt x="307" y="1078" on="0"/>
    <pt x="341" y="1289" on="1"/>
    <pt x="237" y="1159" on="0"/>
  </contour>
</TTGlyph>
<TTGlyph name="z" xMin="44" yMin="0" xMax="1051" yMax="1297">
  <contour>
    <pt x="179" y="918" on="1"/>
    <pt x="272" y="1080" on="0"/>
    <pt x="855" y="1007" on="0"/>
    <pt x="1046" y="1162" on="1"/>
    <pt x="846" y="718" on="0"/>
    <pt x="392" y="449" on="0"/>
    <pt x="287" y="241" on="1"/>
    <pt x="621" y="381" on="0"/>
    <pt x="884" y="222" on="0"/>
    <pt x="1051" y="424" on="1"/>
    <pt x="950" y="150" on="0"/>
    <pt x="1051" y="0" on="1"/>
    <pt x="564" y="188" on="0"/>
    <pt x="44" y="10" on="1"/>
    <pt x="153" y="150" on="0"/>
    <pt x="44" y="294" on="1"/>
    <pt x="215" y="593" on="0"/>
    <pt x="750" y="897" on="0"/>
    <pt x="869" y="1297" on="1"/>
    <pt x="445" y="1205" on="0"/>
    <pt x="139" y="1294" on="1"/>
    <pt x="229" y="1130" on="0"/>
  </contour>
</TTGlyph>
</ttFont>
